<svg width="18" height="17" viewBox="0 0 18 17" fill="none" xmlns="http://www.w3.org/2000/svg">
<path d="M17.5 9.375L17.5 10.375H18.5L18.5 9.375H17.5ZM10.08 9.375V8.375H9.08V9.375H10.08ZM10.08 16.725V17.725H11.08V16.725H10.08ZM8.155 16.725H7.155V17.725H8.155V16.725ZM8.155 9.375H9.155V8.375H8.155V9.375ZM0.665 9.375H-0.335V10.375H0.665V9.375ZM0.665 7.31V6.31H-0.335V7.31H0.665ZM8.155 7.31V8.31H9.155V7.31H8.155ZM8.155 0.309999V-0.690001H7.155V0.309999H8.155ZM10.08 0.309999H11.08V-0.690001H10.08V0.309999ZM10.08 7.31H9.08V8.31H10.08V7.31ZM17.5 7.31H18.5V6.31H17.5V7.31ZM17.5 8.375L10.08 8.375L10.08 10.375L17.5 10.375L17.5 8.375ZM9.08 9.375L9.08 16.725H11.08L11.08 9.375H9.08ZM10.08 15.725H8.155V17.725H10.08V15.725ZM9.155 16.725L9.155 9.375H7.155L7.155 16.725H9.155ZM8.155 8.375H0.665L0.665 10.375H8.155V8.375ZM1.665 9.375V7.31H-0.335L-0.335 9.375H1.665ZM0.665 8.31H8.155L8.155 6.31L0.665 6.31V8.31ZM9.155 7.31V0.309999L7.155 0.309999L7.155 7.31H9.155ZM8.155 1.31L10.08 1.31V-0.690001L8.155 -0.690001L8.155 1.31ZM9.08 0.309999V7.31H11.08V0.309999H9.08ZM10.08 8.31L17.5 8.31V6.31L10.08 6.31V8.31ZM16.5 7.31V9.375H18.5V7.31H16.5Z" fill="black"/>
</svg>
