<svg width="35" height="43" viewBox="0 0 35 43" fill="none" xmlns="http://www.w3.org/2000/svg">
<path d="M29.3329 21.1001L29.9554 13.692H31.0448C31.869 13.692 32.5373 13.0291 32.5373 12.2117V9.51038C32.5373 6.96282 30.4474 4.89013 27.8786 4.89013H22.6867V4.20633C22.6867 1.88679 20.7839 0 18.4453 0H14.0919C11.7532 0 9.85067 1.88679 9.85067 4.20618V4.88998H4.65876C2.08996 4.88998 0 6.96267 0 9.51024V12.2116C0 13.029 0.668332 13.6918 1.49258 13.6918H2.58194L4.61 37.8313C4.85351 40.7297 7.34158 43 10.2742 43H22.2626C25.1603 43 27.6225 40.783 27.9156 37.934C31.9543 37.108 35 33.5542 35 29.308C35.0001 25.5754 32.6455 22.3801 29.3329 21.1001ZM12.8358 4.20618C12.8358 3.51934 13.3993 2.96048 14.0919 2.96048H18.4453C19.138 2.96048 19.7015 3.51934 19.7015 4.20618V4.88998H12.8358V4.20618ZM2.98487 10.7316V9.51038C2.98487 8.59508 3.73568 7.85047 4.65862 7.85047H27.8784C28.8014 7.85047 29.5522 8.59508 29.5522 9.51038V10.7316H2.98487ZM22.2627 40.0395H10.2743C8.8819 40.0395 7.70057 38.9616 7.58494 37.5855L5.57717 13.692H26.9599L26.3872 20.5077C26.298 20.5051 26.2091 20.5009 26.1193 20.5009C21.2224 20.5009 17.2387 24.4518 17.2387 29.308C17.2387 33.7452 20.565 37.4245 24.8743 38.0269C24.5719 39.185 23.5021 40.0395 22.2627 40.0395ZM26.1193 35.1549C22.8684 35.1549 20.2237 32.532 20.2237 29.308C20.2237 26.0841 22.8684 23.4612 26.1193 23.4612C29.3701 23.4612 32.0148 26.0841 32.0148 29.308C32.0148 32.532 29.3701 35.1549 26.1193 35.1549Z" fill="white"/>
<path d="M28.2306 29.3098L29.6379 27.9141C30.2205 27.336 30.2205 26.3986 29.6376 25.8207C29.0545 25.2427 28.1098 25.2427 27.5267 25.8207L26.1194 27.2164L24.7121 25.8207C24.129 25.2427 23.1843 25.2427 22.6013 25.8207C22.0183 26.3988 22.0183 27.336 22.6013 27.9141L24.0086 29.3098L22.6013 30.7055C22.0183 31.2836 22.0183 32.2207 22.6013 32.7988C22.8928 33.0878 23.2747 33.2323 23.6568 33.2323C24.0388 33.2323 24.4207 33.0878 24.7122 32.7988L26.1196 31.4032L27.5269 32.7988C27.8184 33.0878 28.2003 33.2323 28.5824 33.2323C28.9644 33.2323 29.3463 33.0878 29.6379 32.7988C30.2208 32.2207 30.2208 31.2836 29.6379 30.7055L28.2306 29.3098Z" fill="white"/>
</svg>
